<?xml version="1.0" encoding="UTF-8" standalone="no"?>
<!-- Created with Inkscape (http://www.inkscape.org/) -->

<svg
   xmlns:dc="http://purl.org/dc/elements/1.1/"
   xmlns:cc="http://creativecommons.org/ns#"
   xmlns:rdf="http://www.w3.org/1999/02/22-rdf-syntax-ns#"
   xmlns:svg="http://www.w3.org/2000/svg"
   xmlns="http://www.w3.org/2000/svg"
   xmlns:sodipodi="http://sodipodi.sourceforge.net/DTD/sodipodi-0.dtd"
   xmlns:inkscape="http://www.inkscape.org/namespaces/inkscape"
   width="19.647411mm"
   height="22.678745mm"
   viewBox="0 0 19.647411 22.678745"
   version="1.1"
   id="svg997"
   inkscape:version="0.92.4 (5da689c313, 2019-01-14)"
   sodipodi:docname="logo-simple.svg">
  <defs
     id="defs991" />
  <sodipodi:namedview
     id="base"
     pagecolor="#ffffff"
     bordercolor="#666666"
     borderopacity="1.0"
     inkscape:pageopacity="0.0"
     inkscape:pageshadow="2"
     inkscape:zoom="0.71777344"
     inkscape:cx="335.42556"
     inkscape:cy="60.903648"
     inkscape:document-units="mm"
     inkscape:current-layer="layer1"
     showgrid="false"
     inkscape:window-width="1366"
     inkscape:window-height="705"
     inkscape:window-x="0"
     inkscape:window-y="27"
     inkscape:window-maximized="1" />
  <metadata
     id="metadata994">
    <rdf:RDF>
      <cc:Work
         rdf:about="">
        <dc:format>image/svg+xml</dc:format>
        <dc:type
           rdf:resource="http://purl.org/dc/dcmitype/StillImage" />
        <dc:title></dc:title>
      </cc:Work>
    </rdf:RDF>
  </metadata>
  <g
     inkscape:label="Camada 1"
     inkscape:groupmode="layer"
     id="layer1"
     transform="translate(-17.08532,-142.26868)">
    <path
       inkscape:connector-curvature="0"
       style="opacity:1;fill:#b44169;stroke:none;stroke-width:0.26458332"
       d="m 25.655849,142.26901 c 0.234755,-0.003 0.353537,0.0154 0.561285,0.0147 0.205454,-0.002 0.321943,0.0142 0.524258,0.007 1.391087,0.12151 2.751818,0.0791 3.991663,0.44561 4.517671,1.33547 5.850434,6.19336 2.741772,9.70483 -0.11142,0.12585 -0.214861,0.25877 -0.322871,0.38942 3.387192,2.67424 4.337548,5.37697 2.994356,8.42021 -1.108782,2.51215 -4.011025,4.0471 -6.859634,3.62796 -2.377011,-0.34976 -4.003994,-1.80736 -4.19753,-3.51744 1.479644,0.0855 3.026472,0.39246 4.512054,0.2075 2.008176,-0.25002 2.966945,-1.64569 2.812815,-3.48231 -0.125207,-1.49191 -1.661886,-2.78343 -3.446009,-2.86856 -0.659159,-0.0314 -1.321047,-0.006 -1.98169,-0.006 -0.612728,-1.9e-4 -1.225457,-4e-5 -1.946318,-4e-5 0,-1.23709 0,-2.39524 0,-3.7541 0.917525,0 1.898614,0.15052 2.806521,-0.0428 0.890608,-0.1896 1.910465,-0.53189 2.513371,-1.15545 1.267492,-1.31091 0.412881,-3.60554 -1.484231,-3.7813 -2.431093,-0.22524 -4.898852,-0.0547 -7.467819,-0.0547 -0.02531,0.32439 -0.08,0.70362 -0.08063,1.08293 -0.0064,3.83173 -0.01282,7.6635 -3.44e-4,11.49519 0.007,2.15003 0.569468,4.08752 2.309751,5.63177 0.0441,0.0763 0.05232,0.066 0.05232,0.066 -2.887253,0.24472 -5.843575,-2.18536 -6.355749,-5.34226 -0.202928,-1.2508 -0.209317,-2.54136 -0.217559,-3.81439 -0.02566,-3.96342 0.02003,-7.92749 -0.02982,-11.89045 -0.01264,-1.00481 0.21357,-1.41917 1.309757,-1.35955 1.668225,0.0907 3.345488,0.0153 5.140608,-0.0166 0.749034,-0.0135 1.376374,6e-5 2.119688,-0.007 z"
       id="path117" />
  </g>
</svg>
