<?xml version="1.0" encoding="UTF-8" standalone="no"?>
<svg
   xmlns:dc="http://purl.org/dc/elements/1.1/"
   xmlns:cc="http://creativecommons.org/ns#"
   xmlns:rdf="http://www.w3.org/1999/02/22-rdf-syntax-ns#"
   xmlns:svg="http://www.w3.org/2000/svg"
   xmlns="http://www.w3.org/2000/svg"
   xmlns:sodipodi="http://sodipodi.sourceforge.net/DTD/sodipodi-0.dtd"
   xmlns:inkscape="http://www.inkscape.org/namespaces/inkscape"
   version="1.1"
   id="Layer_1"
   x="0px"
   y="0px"
   width="100%"
   viewBox="0 0 427 116"
   enable-background="new 0 0 427 116"
   xml:space="preserve"
   sodipodi:docname="logo-beauty.svg"
   inkscape:version="0.92.4 (5da689c313, 2019-01-14)"><metadata
   id="metadata156"><rdf:RDF><cc:Work
       rdf:about=""><dc:format>image/svg+xml</dc:format><dc:type
         rdf:resource="http://purl.org/dc/dcmitype/StillImage" /><dc:title></dc:title></cc:Work></rdf:RDF></metadata><defs
   id="defs154" /><sodipodi:namedview
   pagecolor="#ffffff"
   bordercolor="#666666"
   borderopacity="1"
   objecttolerance="10"
   gridtolerance="10"
   guidetolerance="10"
   inkscape:pageopacity="0"
   inkscape:pageshadow="2"
   inkscape:window-width="1366"
   inkscape:window-height="705"
   id="namedview152"
   showgrid="false"
   inkscape:zoom="1.3782201"
   inkscape:cx="232.62276"
   inkscape:cy="74.052633"
   inkscape:window-x="0"
   inkscape:window-y="27"
   inkscape:window-maximized="1"
   inkscape:current-layer="Layer_1" />







<path
   d=" M52.556862,19.088182   C53.444126,19.078175 53.893063,19.146345 54.678253,19.143688   C55.454773,19.135162 55.895046,19.197468 56.659702,19.170116   C61.917351,19.629377 67.060272,19.469070 71.746300,20.854313   C88.820961,25.901768 93.858177,44.262291 82.108902,57.533966   C81.687790,58.009636 81.296829,58.512001 80.888603,59.005817   C93.690590,69.113174 97.282486,79.328224 92.205856,90.830246   C88.015182,100.324966 77.046074,106.126350 66.279678,104.542191   C57.295700,103.220291 51.146473,97.711227 50.415001,91.247940   C56.007355,91.571106 61.853634,92.731270 67.468430,92.032211   C75.058388,91.087234 78.682083,85.812248 78.099541,78.870697   C77.626320,73.231979 71.818398,68.350662 65.075256,68.028908   C62.583946,67.910034 60.082325,68.006538 57.585407,68.005775   C55.269585,68.005066 52.953758,68.005623 50.229244,68.005623   C50.229244,63.330006 50.229244,58.952736 50.229244,53.816883   C53.697056,53.816883 57.405106,54.385777 60.836567,53.655327   C64.202644,52.938801 68.057220,51.645115 70.335922,49.288349   C75.126442,44.333721 71.896416,35.661114 64.726227,34.996807   C55.537846,34.145523 46.210884,34.790031 36.501404,34.790031   C36.405724,36.016094 36.199028,37.449390 36.196651,38.883018   C36.172630,53.365131 36.148178,67.847404 36.195305,82.329399   C36.221748,90.455475 38.347626,97.778290 44.925072,103.614807   C45.091766,103.903122 45.122810,103.864128 45.122810,103.864128   C34.210358,104.789070 23.036856,95.604538 21.101082,83.672928   C20.334110,78.945518 20.309963,74.067780 20.278812,69.256348   C20.181829,54.276474 20.354530,39.294182 20.166111,24.316057   C20.118340,20.518351 20.973303,18.952259 25.116371,19.177597   C31.421476,19.520525 37.760735,19.235594 44.545441,19.114662   C47.376438,19.063465 49.747486,19.114912 52.556862,19.088182  z"
   id="path117"
   stroke="none"
   fill="#B44169"
   opacity="1.000000" />
<path
   d=" M151.323730,31.600525   C161.262405,39.303600 166.659805,51.697914 165.688156,64.776375   C148.663467,64.776375 131.588348,64.776375 114.239517,64.776375   C115.308151,73.935532 119.239914,80.649117 127.596840,83.522713   C139.302811,87.547913 147.853973,82.336296 154.475433,72.444244   C157.559616,75.250374 160.369095,77.806587 163.132690,80.321037   C156.272263,95.446526 135.354965,102.272446 119.856056,94.603325   C101.909798,85.723198 95.159164,61.993809 105.274887,43.348560   C114.506798,26.332340 134.101135,21.203888 151.323730,31.600525  M146.204834,51.999073   C147.446823,51.934326 148.688828,51.869579 150.007004,51.800861   C147.905334,43.713245 142.212296,39.354374 133.955124,39.177860   C125.765839,39.002796 118.754120,44.017529 116.330414,51.999107   C126.031883,51.999107 135.651764,51.999107 146.204834,51.999073  z"
   id="path119"
   stroke="none"
   fill="#3F3064"
   opacity="1.000000" />
<path
   d=" M175.361755,53.545258   C183.947266,32.943710 201.143890,24.083437 227.802628,26.476053   C227.802628,49.954002 227.802628,73.469498 227.802628,97.281845   C223.739746,97.281845 219.657516,97.281845 215.398865,97.281845   C215.184097,95.729271 214.991226,94.335045 214.915024,93.784210   C209.132172,95.039139 203.548813,97.273590 197.970169,97.261879   C183.560196,97.231667 173.653244,86.865768 173.172348,71.568863   C172.988068,65.707191 174.476379,59.792934 175.361755,53.545258  M186.992844,69.134552   C188.436661,78.233765 192.833603,82.972351 199.837708,82.977486   C207.001953,82.982750 214.507111,77.475784 214.839691,70.912003   C215.341110,61.015560 214.970398,51.074928 214.970398,41.183083   C199.006393,40.310215 186.688644,52.404408 186.992844,69.134552  z"
   id="path121"
   stroke="none"
   fill="#3E2F64"
   opacity="1.000000" />
<path
   d=" M234.899429,53.992287   C234.899429,44.879932 234.899429,35.767578 234.899429,26.392401   C239.474426,26.392401 243.404556,26.392401 248.188782,26.392401   C248.188782,30.907993 248.188782,35.480690 248.179779,40.967621   C248.226776,45.597023 248.282776,49.312195 248.338776,53.027363   C248.288223,56.687355 248.237671,60.347347 248.153717,64.741440   C248.330002,65.996284 248.539703,66.517014 248.749390,67.037750   C249.165588,69.628044 249.275909,72.315865 250.064072,74.787552   C251.533585,79.395988 254.184296,83.230743 259.373413,84.071693   C265.108337,85.001114 270.697266,83.905586 273.991119,78.905334   C276.440186,75.187477 278.312225,70.623329 278.872223,66.235840   C279.725616,59.549797 279.222412,52.690613 279.269287,45.057320   C279.188538,43.143291 279.133789,42.076897 279.189941,40.556374   C279.311310,35.563408 279.321808,31.024570 279.715668,26.397594   C281.400970,26.182623 282.702881,26.055788 284.004822,25.928953   C285.394165,25.984077 286.783508,26.039202 288.957092,26.104839   C293.054565,25.567717 292.513092,28.138008 292.869171,29.982294   C292.787537,50.264385 292.705292,70.546478 292.625366,90.828575   C292.617554,92.806595 292.624298,94.784668 292.624298,97.180038   C288.263428,97.180038 284.220032,97.180038 279.760101,97.180038   C279.521729,95.256325 279.269501,93.220619 279.046234,91.418900   C274.899261,93.299950 271.050781,95.822540 266.841919,96.811768   C253.201752,100.017700 241.267212,92.975739 237.231583,79.120384   C235.634109,73.635796 235.700989,67.666428 235.015854,61.032719   C234.980911,58.095863 234.940170,56.044075 234.899429,53.992287  z"
   id="path123"
   stroke="none"
   fill="#433367"
   opacity="1.000000" />
<path
   d=" M362.913574,56.800648   C362.345795,46.484474 361.864899,36.575867 361.370422,26.387215   C366.238373,26.387215 370.172791,26.387215 374.868713,26.387215   C374.868713,33.660717 374.783508,40.921818 374.889252,48.180141   C375.037231,58.335342 382.855164,63.539474 392.331329,59.833855   C397.960785,57.632473 399.678925,52.939770 399.785614,47.422421   C399.888702,42.091118 399.794617,36.756233 399.822998,31.423115   C399.831604,29.805737 399.959473,28.188990 400.042206,26.362556   C404.300446,26.362556 408.232605,26.362556 412.436584,26.362556   C412.586731,27.206327 412.843933,27.982203 412.845276,28.758520   C412.870544,43.424957 412.986908,58.092754 412.829224,72.757523   C412.699280,84.846291 405.457123,94.033508 394.203735,96.928871   C382.004944,100.067482 369.854736,95.743095 363.830292,85.832527   C367.360138,83.488106 370.910065,81.130363 374.667664,78.634697   C379.658813,84.772018 385.809937,86.406700 392.975220,83.412064   C398.386810,81.150368 399.641937,76.497383 399.709778,70.491035   C390.742432,74.006569 381.963928,75.928528 373.312225,70.799377   C368.043365,67.675720 364.820831,62.965515 362.913574,56.800648  z"
   id="path125"
   stroke="none"
   fill="#403065"
   opacity="1.000000" />
<path
   d=" M310.004852,25.933937   C324.647888,25.933935 339.290924,25.933935 354.338654,25.933935   C354.338654,30.404490 354.338654,34.450600 354.338654,39.112137   C347.647247,39.112137 340.927582,39.112137 333.719238,39.112137   C333.719238,58.775677 333.719238,77.845856 333.719238,97.252167   C329.177612,97.252167 325.136658,97.252167 320.594849,97.252167   C320.594849,77.940063 320.594849,58.855614 320.594849,39.243942   C313.364716,39.243942 306.616180,39.243942 299.275604,39.243942   C299.275604,36.432198 299.275604,34.147194 299.255280,31.039274   C299.209473,29.152399 299.184021,28.088442 299.441711,26.765282   C301.813599,26.297867 303.902405,26.089653 306.385193,25.977144   C307.854431,26.026545 308.929657,25.980242 310.004852,25.933937  z"
   id="path127"
   stroke="none"
   fill="#423367"
   opacity="1.000000" />





<path
   d=" M45.071228,103.916641   C45.050686,103.930161 45.352562,104.303230 45.352562,104.303230   C45.352562,104.303230 45.100479,104.132637 45.111645,103.998383   C45.122810,103.864128 45.091766,103.903122 45.071228,103.916641  z"
   id="path139"
   stroke="none"
   fill="#B44169"
   opacity="1.000000" />





</svg>